<svg width="26" height="28" viewBox="0 0 26 28" fill="none" xmlns="http://www.w3.org/2000/svg">
<mask id="mask0_84_382" style="mask-type:luminance" maskUnits="userSpaceOnUse" x="0" y="0" width="26" height="28">
<path d="M26 0.5H0V27.5H26V0.5Z" fill="white"/>
</mask>
<g mask="url(#mask0_84_382)">
<path d="M25.2248 13.1124C25.2248 6.14676 19.578 0.5 12.6124 0.5C5.64676 0.5 0 6.14676 0 13.1124C0 20.078 5.64676 25.7248 12.6124 25.7248C19.578 25.7248 25.2248 20.078 25.2248 13.1124Z" fill="#615CFF"/>
<path d="M25.2248 13.1124C25.2248 6.14676 19.578 0.5 12.6124 0.5C5.64676 0.5 0 6.14676 0 13.1124C0 20.078 5.64676 25.7248 12.6124 25.7248C19.578 25.7248 25.2248 20.078 25.2248 13.1124Z" fill="#615CFF"/>
<mask id="mask1_84_382" style="mask-type:alpha" maskUnits="userSpaceOnUse" x="0" y="4" width="26" height="23">
<path d="M21.3441 19.9052C21.3441 18.8335 20.4754 17.9648 19.4037 17.9648C18.3321 17.9648 17.4634 18.8335 17.4634 19.9052C17.4634 20.9768 18.3321 21.8455 19.4037 21.8455C20.4754 21.8455 21.3441 20.9768 21.3441 19.9052Z" fill="white"/>
<path d="M25.2248 6.32214C8.73166 5.35185 7.48428 13.0227 7.48428 17.919C7.48428 22.8153 7.48428 20.8485 7.48428 26.7077M0 15.408H15.523" stroke="white" stroke-width="4"/>
</mask>
<g mask="url(#mask1_84_382)">
<path d="M25.2248 13.1124C25.2248 6.14676 19.578 0.5 12.6124 0.5C5.64676 0.5 0 6.14676 0 13.1124C0 20.078 5.64676 25.7248 12.6124 25.7248C19.578 25.7248 25.2248 20.078 25.2248 13.1124Z" fill="white"/>
</g>
</g>
</svg>
