<svg width="24" height="25" viewBox="0 0 24 25" fill="none" xmlns="http://www.w3.org/2000/svg">
<path d="M13 5.5C13 4.94772 12.5523 4.5 12 4.5C11.4477 4.5 11 4.94772 11 5.5V6.58937C10.2057 6.73865 9.53986 7.07117 9.03017 7.55838C8.32377 8.23362 8 9.12887 8 10C8 11.896 9.70024 13.5 12 13.5C12.8125 13.5 13.3047 13.669 13.5761 13.8813C13.8032 14.059 14 14.3631 14 15C14 15.5746 13.7911 15.8948 13.5103 16.1029C13.1884 16.3415 12.6718 16.5 12 16.5C11.2499 16.5 10.7645 16.2978 10.4778 16.039C10.205 15.7927 10 15.3951 10 14.75C10 14.1977 9.55228 13.75 9 13.75C8.44772 13.75 8 14.1977 8 14.75C8 15.8549 8.37195 16.8323 9.13759 17.5235C9.65395 17.9897 10.2944 18.2762 11 18.4099V19.5C11 20.0523 11.4477 20.5 12 20.5C12.5523 20.5 13 20.0523 13 19.5V18.4135C13.6097 18.3034 14.1994 18.0816 14.7013 17.7096C15.5166 17.1052 16 16.1754 16 15C16 13.8869 15.6199 12.941 14.8085 12.3062C14.0414 11.706 13.0337 11.5 12 11.5C10.6075 11.5 10 10.604 10 10C10 9.62113 10.1378 9.26638 10.4121 9.00412C10.6818 8.74635 11.1667 8.5 12 8.5C12.6668 8.5 13.0867 8.80283 13.3708 9.17221C13.5193 9.36522 13.6256 9.573 13.6931 9.75171C13.7442 9.88696 13.761 9.97243 13.7665 10.0006C13.7692 10.0143 13.7692 10.0144 13.7692 10C13.7692 10.5523 14.2169 11 14.7692 11C15.3215 11 15.7692 10.5523 15.7692 10C15.7692 9.70606 15.6829 9.35962 15.5641 9.04516C15.4369 8.70825 15.2403 8.32228 14.9561 7.95279C14.5242 7.39136 13.8807 6.8622 13 6.6273V5.5Z" fill="#615CFF"/>
<path d="M12 1.5C5.92487 1.5 1 6.42487 1 12.5C1 18.5751 5.92487 23.5 12 23.5C18.0751 23.5 23 18.5751 23 12.5C23 6.42487 18.0751 1.5 12 1.5ZM3 12.5C3 7.52944 7.02944 3.5 12 3.5C16.9706 3.5 21 7.52944 21 12.5C21 17.4706 16.9706 21.5 12 21.5C7.02944 21.5 3 17.4706 3 12.5Z" fill="#615CFF"/>
</svg>
