<svg width="24" height="25" viewBox="0 0 24 25" fill="none" xmlns="http://www.w3.org/2000/svg">
<path fill-rule="evenodd" clip-rule="evenodd" d="M11 2.5C12.6569 2.5 14 3.84315 14 5.5L14.0001 6.67067C14.3128 6.56014 14.6494 6.5 15 6.5H19C20.6569 6.5 22 7.84315 22 9.5V19.5C22 21.1569 20.6569 22.5 19 22.5H5C3.34315 22.5 2 21.1569 2 19.5V5.5C2 3.84315 3.34315 2.5 5 2.5H11ZM11 4.5H5C4.44772 4.5 4 4.94772 4 5.5V19.5C4 20.0523 4.44772 20.5 5 20.5H12V5.5C12 4.94772 11.5523 4.5 11 4.5ZM19 8.5H15C14.4477 8.5 14 8.94772 14 9.5V20.5H19C19.5523 20.5 20 20.0523 20 19.5V9.5C20 8.94772 19.5523 8.5 19 8.5ZM9 14.5C9.55228 14.5 10 14.9477 10 15.5C10 16.0523 9.55228 16.5 9 16.5H7C6.44772 16.5 6 16.0523 6 15.5C6 14.9477 6.44772 14.5 7 14.5H9ZM18 14.5C18.5523 14.5 19 14.9477 19 15.5C19 16.0523 18.5523 16.5 18 16.5H16C15.4477 16.5 15 16.0523 15 15.5C15 14.9477 15.4477 14.5 16 14.5H18ZM9 10.5C9.55228 10.5 10 10.9477 10 11.5C10 12.0523 9.55228 12.5 9 12.5H7C6.44772 12.5 6 12.0523 6 11.5C6 10.9477 6.44772 10.5 7 10.5H9ZM18 10.5C18.5523 10.5 19 10.9477 19 11.5C19 12.0523 18.5523 12.5 18 12.5H16C15.4477 12.5 15 12.0523 15 11.5C15 10.9477 15.4477 10.5 16 10.5H18ZM9 6.5C9.55228 6.5 10 6.94772 10 7.5C10 8.05228 9.55228 8.5 9 8.5H7C6.44772 8.5 6 8.05228 6 7.5C6 6.94772 6.44772 6.5 7 6.5H9Z" fill="#615CFF"/>
</svg>
