<svg width="24" height="25" viewBox="0 0 24 25" fill="none" xmlns="http://www.w3.org/2000/svg">
<g clip-path="url(#clip0_153_1691)">
<path d="M9 0.5C7.89543 0.5 7 1.39543 7 2.5H6C4.34315 2.5 3 3.84315 3 5.5V20.5C3 22.1569 4.34315 23.5 6 23.5H18C19.6569 23.5 21 22.1569 21 20.5V5.5C21 3.84315 19.6569 2.5 18 2.5H17C17 1.39543 16.1046 0.5 15 0.5H9ZM17 4.5H18C18.5523 4.5 19 4.94771 19 5.5V20.5C19 21.0523 18.5523 21.5 18 21.5H6C5.44772 21.5 5 21.0523 5 20.5V5.5C5 4.94772 5.44772 4.5 6 4.5H7C7 5.60457 7.89543 6.5 9 6.5H15C16.1046 6.5 17 5.60457 17 4.5ZM9 2.5H15V4.5H9V2.5Z" fill="#615CFF"/>
</g>
<defs>
<clipPath id="clip0_153_1691">
<rect width="24" height="24" fill="white" transform="translate(0 0.5)"/>
</clipPath>
</defs>
</svg>
