<svg width="24" height="25" viewBox="0 0 24 25" fill="none" xmlns="http://www.w3.org/2000/svg">
<path d="M16 5.5C15.4477 5.5 15 5.05228 15 4.5C15 3.94772 15.4477 3.5 16 3.5H20C20.5523 3.5 21 3.94772 21 4.5V8.5C21 9.05228 20.5523 9.5 20 9.5C19.4477 9.5 19 9.05228 19 8.5V6.91421L13.7071 12.2071C13.3166 12.5976 12.6834 12.5976 12.2929 12.2071L9 8.91421L3.70711 14.2071C3.31658 14.5976 2.68342 14.5976 2.29289 14.2071C1.90237 13.8166 1.90237 13.1834 2.29289 12.7929L8.29289 6.79289C8.68342 6.40237 9.31658 6.40237 9.70711 6.79289L13 10.0858L17.5858 5.5H16ZM3 20.5C3 19.9477 3.44772 19.5 4 19.5H20C20.5523 19.5 21 19.9477 21 20.5C21 21.0523 20.5523 21.5 20 21.5H4C3.44772 21.5 3 21.0523 3 20.5Z" fill="#615CFF"/>
</svg>
